<?xml version="1.0" encoding="UTF-8" standalone="no"?>
<svg width="74px" height="88px" viewBox="0 0 74 88" version="1.1" xmlns="http://www.w3.org/2000/svg" xmlns:xlink="http://www.w3.org/1999/xlink">
    <defs></defs>
    <g id="Degree-Icons" stroke="none" stroke-width="1" fill="none" fill-rule="evenodd">
        <g id="Artboard-1" transform="translate(-339.000000, -341.000000)">
            <g id="noun_169348_cc" transform="translate(339.000000, 340.000000)">
                <g id="Group" transform="translate(0.000000, 0.637840)">
                    <path d="M0.35059,0.55847 L0.35059,82.5585 L41.08887,82.5585 C40.63259,81.9166 40.20385,81.2549 39.82715,80.5585 L2.35059,80.5585 L2.35059,2.55847 L60.35059,2.55847 L60.35059,52.3534 C61.02988,52.4777 61.69785,52.6326 62.35059,52.8261 L62.35059,0.55847 L0.35059,0.55847 Z" id="Shape" fill="#000000"></path>
                    <path d="M31.35002,17.1259 C24.3391,17.1259 18.63518,22.82982 18.63518,29.84074 C18.63518,36.85168 24.3391,42.5556 31.35002,42.5556 C38.36096,42.5556 44.06682,36.85168 44.06682,29.84074 C44.06682,22.82982 38.36095,17.1259 31.35002,17.1259 L31.35002,17.1259 Z M31.35002,23.55168 C33.27952,23.55168 34.86369,25.13391 34.86369,27.0634 C34.86369,28.99289 33.27939,30.57512 31.35002,30.57512 C29.42066,30.57512 27.8383,28.99289 27.8383,27.0634 C27.8383,25.13391 29.42053,23.55168 31.35002,23.55168 L31.35002,23.55168 Z M31.35002,25.54777 C30.49877,25.54777 29.8344,26.21215 29.8344,27.0634 C29.8344,27.91464 30.49855,28.57902 31.35002,28.57902 C32.2015,28.57902 32.86565,27.91464 32.86565,27.0634 C32.86565,26.21215 32.20128,25.54777 31.35002,25.54777 L31.35002,25.54777 Z M25.32463,29.88762 L27.32073,29.88762 L27.32073,34.13371 L35.38127,34.13371 L35.38127,29.88762 L37.37737,29.88762 L37.37737,36.13176 L25.32463,36.13176 L25.32463,30.10441 L25.32463,29.88762 L25.32463,29.88762 Z" id="Shape" fill="#000000"></path>
                    <path d="M15.51246,48.3699 L15.51246,50.368 L47.1902,50.368 L47.1902,48.3699 L15.51246,48.3699 Z" id="Shape" fill="#000000"></path>
                    <path d="M15.5127,56.1816 L15.5127,58.1796 L42.74512,58.1796 C43.41802,57.4604 44.1405,56.7918 44.91504,56.1816 L15.5127,56.1816 Z" id="Shape" fill="#000000"></path>
                    <path d="M15.5127,63.9921 L15.5127,65.9902 L38.28613,65.9902 C38.48421,65.3089 38.71063,64.6404 38.97949,63.9921 L15.5127,63.9921 Z" id="Shape" fill="#000000"></path>
                    <path d="M31.35119,17.34331 C24.45816,17.34331 18.8535,22.94797 18.8535,29.84099 C18.8535,36.73403 24.45816,42.3387 31.35119,42.3387 C38.24423,42.3387 43.84889,36.73403 43.84889,29.84099 C43.84889,22.94797 38.24422,17.34331 31.35119,17.34331 L31.35119,17.34331 Z M31.35119,18.90551 C37.39994,18.90551 42.28667,23.79225 42.28667,29.84099 C42.28667,35.88975 37.39994,40.77647 31.35119,40.77647 C25.30244,40.77647 20.41571,35.88975 20.41571,29.84099 C20.41571,23.79225 25.30244,18.90551 31.35119,18.90551 L31.35119,18.90551 Z" id="Shape"></path>
                    <path d="M56.86426,54.5937 C52.4119298,54.5933294 48.1418488,56.3618459 44.993575,59.5101179 C41.8453011,62.6583899 40.0767821,66.9284698 40.07715,71.3808 C40.0773391,75.8327664 41.846104,80.1023067 44.9943175,83.2501245 C48.142531,86.3979423 52.4122936,88.1661705 56.86426,88.1658 C66.1342941,88.1654891 73.6490715,80.6507341 73.64941,71.3807 C73.6497779,66.9287094 71.8815279,62.6589266 68.7336779,59.5107109 C65.585828,56.3624953 61.3162507,54.5937493 56.86426,54.5936 L56.86426,54.5937 Z M55.86426,63.8787 L57.86426,63.8787 L57.86426,70.3787 L64.36426,70.3787 L64.36426,72.3787 L57.86426,72.3787 L57.86426,78.8787 L55.86426,78.8787 L55.86426,72.3787 L49.36426,72.3787 L49.36426,70.3787 L55.86426,70.3787 L55.86426,63.8787 L55.86426,63.8787 Z" id="Shape" fill="#000000"></path>
                </g>
            </g>
        </g>
    </g>
</svg>