<?xml version="1.0" encoding="UTF-8" standalone="no"?>
<svg width="89px" height="111px" viewBox="0 0 89 111" version="1.1" xmlns="http://www.w3.org/2000/svg" xmlns:xlink="http://www.w3.org/1999/xlink">
    <defs></defs>
    <g id="Degree-Icons" stroke="none" stroke-width="1" fill="none" fill-rule="evenodd">
        <g id="Artboard-1" transform="translate(-292.000000, -135.000000)">
            <g id="Group" transform="translate(293.000000, 136.000000)">
                <rect id="Rectangle-1" stroke="#3F3F3F" stroke-width="2" x="0" y="0" width="80" height="95" rx="3"></rect>
                <rect id="Rectangle-1-Copy" stroke="#3F3F3F" stroke-width="2" fill="#FFFFFF" x="8" y="8" width="79" height="95" rx="3"></rect>
                <rect id="Rectangle-3" fill="#3F3F3F" x="16" y="20" width="63" height="2" rx="2"></rect>
                <rect id="Rectangle-3-Copy" fill="#3F3F3F" x="16" y="30" width="63" height="2" rx="2"></rect>
                <rect id="Rectangle-3-Copy-2" fill="#3F3F3F" x="16" y="40" width="63" height="2" rx="2"></rect>
                <rect id="Rectangle-3-Copy-3" fill="#3F3F3F" x="16" y="50" width="63" height="2" rx="2"></rect>
                <rect id="Rectangle-3-Copy-4" fill="#3F3F3F" x="16" y="60" width="63" height="2" rx="2"></rect>
                <rect id="Rectangle-3-Copy-5" fill="#3F3F3F" x="16" y="70" width="36" height="2" rx="2"></rect>
                <rect id="Rectangle-3-Copy-7" fill="#3F3F3F" x="16" y="80" width="32" height="2" rx="2"></rect>
                <path d="M59,88 L75,88 L75,110 L67,104 L59,110 L59,88 Z" id="Rectangle-9" stroke="#000000" fill="#222222"></path>
                <path d="M67,91 C73.627417,91 79,85.627417 79,79 C79,72.372583 73.627417,67 67,67 C60.372583,67 55,72.372583 55,79 C55,85.627417 60.372583,91 67,91 Z" id="Oval-2" stroke="#FFFFFF" fill="#222222"></path>
            </g>
        </g>
    </g>
</svg>