<?xml version="1.0" standalone="no"?><!DOCTYPE svg PUBLIC "-//W3C//DTD SVG 1.1//EN" "http://www.w3.org/Graphics/SVG/1.1/DTD/svg11.dtd"><svg width="100%" height="100%" viewBox="0 0 373 78" version="1.1" xmlns="http://www.w3.org/2000/svg" xmlns:xlink="http://www.w3.org/1999/xlink" xml:space="preserve" style="fill-rule:evenodd;clip-rule:evenodd;stroke-linejoin:round;stroke-miterlimit:1.41421;"><g><path d="M11.098,53.127l3.614,0l0,-0.073c-1.254,-0.467 -1.106,-2.262 -1.106,-3.369l0,-9.268c0,-1.131 -0.148,-2.926 1.106,-3.393l-0.024,-0.074l-4.672,0l0,0.074c1.23,0.467 1.082,2.262 1.082,3.368l0,7.4c0,0.885 0.025,1.5 -0.516,2.238c-0.811,1.155 -2.213,1.721 -3.59,1.721c-2.532,0 -3.909,-1.525 -3.909,-4.795l0,-6.564c0,-1.106 -0.147,-2.901 1.082,-3.368l0,-0.074l-4.671,0l0,0.074c1.253,0.467 1.081,2.262 1.081,3.368l0,6.564c0,1.771 -0.049,3.418 1.254,4.844c1.107,1.205 2.828,1.721 4.45,1.721c1.721,0 3.737,-0.59 4.819,-2.016l0,1.622Z" style="fill:#fff;fill-rule:nonzero;"/><path d="M20.049,40.417l8.432,10.694c1.082,1.402 1.844,2.213 3.59,2.803l0,-13.792c0,-1.377 0,-2.361 1.278,-3.098l0,-0.074l-4.327,0l0,0.074c1.303,0.737 1.279,1.721 1.279,3.098l0,9.318l-8.999,-11.359l-0.344,-0.492c-0.172,-0.196 -0.27,-0.319 -0.369,-0.614l0,-0.025l-3.589,0l0,0.074c1.278,0.737 1.278,1.721 1.278,3.098l0,9.809c0,1.377 0,2.361 -1.303,3.123l0,0.073l4.352,0l0,-0.073c-1.303,-0.762 -1.278,-1.746 -1.278,-3.123l0,-9.514Z" style="fill:#fff;fill-rule:nonzero;"/><path d="M35.913,49.685c0,1.107 0.147,2.926 -1.082,3.369l0,0.073l4.671,0l0,-0.073c-1.229,-0.467 -1.082,-2.262 -1.082,-3.369l0,-9.268c0,-1.107 -0.147,-2.926 1.082,-3.393l0,-0.074l-4.671,0l0,0.074c1.254,0.467 1.082,2.262 1.082,3.393l0,9.268Z" style="fill:#fff;fill-rule:nonzero;"/><path d="M49.013,50.226l-3.909,-10.694c-0.197,-0.541 -0.664,-1.746 -0.664,-2.287l0.024,-0.295l-3.589,0l0,0.074c1.082,0.836 1.45,2.262 1.918,3.515l3.712,10.056c0.713,1.942 1.278,2.139 2.999,3.27l6.491,-16.915l-3.663,0l0,0.074c1.524,0.614 0.688,2.63 0.024,4.376l-3.343,8.826Z" style="fill:#fff;fill-rule:nonzero;"/><path d="M61.19,45.235l1.82,0c0.762,0 1.794,-0.024 2.188,0.689l0.074,0l0,-2.606l-0.074,0c-0.295,0.147 -0.689,0.147 -1.082,0.147l-2.926,0l0,-4.573c0.787,-0.147 1.648,-0.172 2.508,-0.172c1.131,0 2.139,0.098 2.901,0.984l0.074,0l0,-2.877l-0.074,0c-0.319,0.172 -0.737,0.123 -1.155,0.123l-7.868,0l0,0.074c1.254,0.467 1.107,2.262 1.107,3.393l0,9.268c0,1.107 0.147,2.926 -1.107,3.369l0,0.073l10.253,0l1.106,-3.22l-0.074,0c-1.229,1.081 -2.926,1.598 -4.548,1.45l-3.123,-0.295l0,-5.827Z" style="fill:#fff;"/><path d="M70.049,36.95l0,0.074c1.254,0.467 1.082,2.262 1.082,3.393l0,9.268c0,1.107 0.172,2.926 -1.082,3.369l0,0.073l4.696,0l0,-0.073c-1.254,-0.443 -1.106,-2.238 -1.106,-3.369l0,-11.014c0.565,-0.098 1.106,-0.172 1.671,-0.197c1.648,-0.073 3.172,0.959 3.172,2.729c0,2.311 -2.286,3.221 -4.253,3.516l2.262,3.467l2.999,3.712c0.738,0.91 1.549,1.229 2.852,1.229l2.262,0c-1.401,-0.885 -2.95,-2.163 -3.983,-3.442l-3.54,-4.45c2.016,-0.467 3.909,-2.163 3.909,-4.327c0,-2.237 -1.795,-3.958 -5.089,-3.958l-5.852,0Z" style="fill:#fff;fill-rule:nonzero;"/><path d="M95.386,37.097c-1.18,-0.368 -2.433,-0.54 -3.663,-0.54c-2.999,0 -6.171,1.18 -6.171,4.278c0,5.212 8.458,4.523 8.458,8.359c0,1.721 -2.115,2.557 -3.516,2.557c-1.918,0 -3.934,-0.787 -5.384,-2.041l0.713,3.073c1.401,0.517 2.901,0.738 4.4,0.738c3.836,0 6.589,-2.459 6.589,-5.089c0,-4.549 -8.457,-4.5 -8.457,-7.868c0,-1.696 1.77,-2.237 3.172,-2.237c1.376,0 2.901,0.565 3.859,1.549l0,-2.779Z" style="fill:#fff;fill-rule:nonzero;"/><path d="M99.154,49.685c0,1.107 0.148,2.926 -1.082,3.369l0,0.073l4.672,0l0,-0.073c-1.23,-0.467 -1.082,-2.262 -1.082,-3.369l0,-9.268c0,-1.107 -0.148,-2.926 1.082,-3.393l0,-0.074l-4.672,0l0,0.074c1.254,0.467 1.082,2.262 1.082,3.393l0,9.268Z" style="fill:#fff;fill-rule:nonzero;"/><path d="M112.014,38.72l2.213,0c0.811,0 1.795,0.123 2.115,0.984l0.073,0l0.787,-2.926l-0.074,0c-0.319,0.147 -0.713,0.172 -1.131,0.172l-9.17,0l-0.615,0c-0.319,-0.049 -0.639,-0.049 -0.934,-0.172l-0.074,0l-0.86,2.926l0.073,0c0.763,-0.713 1.869,-0.984 2.926,-0.984l2.164,0l0,10.965c0,1.107 0.147,2.902 -1.082,3.369l0,0.073l4.868,0l0,-0.073c-1.303,-0.762 -1.279,-1.721 -1.279,-3.123l0,-11.211Z" style="fill:#fff;"/><path d="M127.188,46.047l6.048,-9.097l-4.302,0l0,0.074c1.376,0.664 0.811,1.844 0.393,2.458l-3.049,4.573l-3.933,-6.417c-0.32,-0.516 -1.058,-0.688 -1.844,-0.688l-2.238,0c1.18,0.639 1.672,1.451 2.336,2.532l4.081,6.565l0,3.638c0,1.156 0.172,2.754 -1.032,3.369l0,0.073l4.794,0l0,-0.073c-1.254,-0.91 -1.254,-1.648 -1.254,-3.123l0,-3.884Z" style="fill:#fff;fill-rule:nonzero;"/><path d="M4.797,29.867l0,-16.446c0,-1.698 -0.264,-4.489 1.659,-5.206l0,-0.113l-7.204,0l0,0.113c1.923,0.717 1.697,3.471 1.697,5.206l0,14.22c0,1.698 0.226,4.489 -1.697,5.168l0,0.113l15.503,0l1.961,-5.016l-0.113,0c-1.886,1.584 -4.111,2.451 -6.676,2.301l-5.13,-0.34Z" style="fill:#fff;"/><path d="M30.751,7.461c-7.921,-0.189 -14.145,5.809 -14.145,12.976c0,7.733 6.3,13.089 13.768,13.089c7.507,0 13.881,-5.583 13.881,-13.278c0,-6.79 -5.582,-12.825 -13.504,-12.787ZM30.487,10.177c5.96,0 9.468,5.318 9.468,10.826c0,5.62 -3.659,9.807 -9.392,9.807c-5.922,0 -9.657,-5.432 -9.657,-10.713c0,-5.695 3.735,-9.92 9.581,-9.92Z" style="fill:#fff;"/><path d="M54.323,22.059l9.28,-13.957l-6.601,0l0,0.113c2.112,1.019 1.244,2.829 0.603,3.772l-4.677,7.017l-6.036,-9.846c-0.49,-0.792 -1.622,-1.056 -2.829,-1.056l-3.432,0c1.81,0.981 2.565,2.226 3.583,3.885l6.262,10.072l0,5.582c0,1.773 0.264,4.225 -1.584,5.168l0,0.113l7.355,0l0,-0.113c-1.924,-1.395 -1.924,-2.527 -1.924,-4.79l0,-5.96Z" style="fill:#fff;fill-rule:nonzero;"/><path d="M74.777,7.461c-7.922,-0.189 -14.146,5.809 -14.146,12.976c0,7.733 6.3,13.089 13.768,13.089c7.507,0 13.882,-5.583 13.882,-13.278c0,-6.79 -5.583,-12.825 -13.504,-12.787ZM74.513,10.177c5.959,0 9.468,5.318 9.468,10.826c0,5.62 -3.659,9.807 -9.393,9.807c-5.922,0 -9.656,-5.432 -9.656,-10.713c0,-5.695 3.734,-9.92 9.581,-9.92Z" style="fill:#fff;"/><path d="M94.361,29.867l0,-16.446c0,-1.698 -0.264,-4.489 1.659,-5.206l0,-0.113l-7.204,0l0,0.113c1.923,0.717 1.697,3.471 1.697,5.206l0,14.22c0,1.698 0.226,4.489 -1.697,5.168l0,0.113l15.503,0l1.961,-5.016l-0.113,0c-1.886,1.584 -4.111,2.451 -6.676,2.301l-5.13,-0.34Z" style="fill:#fff;"/><path d="M124.096,23.605l2.036,5.319c1.019,2.64 1.321,3.055 -0.528,3.885l0,0.113l7.733,0l0,-0.113c-2.15,-1.094 -2.829,-3.206 -3.696,-5.356l-7.846,-19.351l-5.96,0l0,0.113c1.81,0.566 1.094,2.15 0.566,3.508l-6.3,15.73c-0.83,2.15 -1.471,4.262 -3.659,5.356l0,0.113l6.941,0l0,-0.113c-1.811,-0.679 -1.547,-1.773 -0.755,-3.885l1.962,-5.319l9.506,0ZM123.002,20.814l-7.431,0l3.734,-9.506l3.697,9.506Z" style="fill:#fff;"/><path d="M2.577,59.451l6.931,8.79c0.889,1.152 1.516,1.818 2.95,2.303l0,-11.336c0,-1.132 0,-1.94 1.051,-2.546l0,-0.061l-3.556,0l0,0.061c1.071,0.606 1.05,1.414 1.05,2.546l0,7.659l-7.396,-9.336l-0.283,-0.404c-0.141,-0.162 -0.222,-0.263 -0.303,-0.506l0,-0.02l-2.95,0l0,0.061c1.051,0.606 1.051,1.414 1.051,2.546l0,8.063c0,1.131 0,1.94 -1.071,2.566l0,0.061l3.577,0l0,-0.061c-1.071,-0.626 -1.051,-1.435 -1.051,-2.566l0,-7.82Z" style="fill:#fff;fill-rule:nonzero;"/><path d="M18.206,63.411l1.495,0c0.626,0 1.475,-0.02 1.798,0.566l0.061,0l0,-2.142l-0.061,0c-0.242,0.121 -0.565,0.121 -0.889,0.121l-2.404,0l0,-3.758c0.646,-0.122 1.354,-0.142 2.061,-0.142c0.929,0 1.758,0.081 2.384,0.808l0.061,0l0,-2.364l-0.061,0c-0.262,0.142 -0.606,0.101 -0.949,0.101l-6.467,0l0,0.061c1.031,0.384 0.909,1.859 0.909,2.789l0,7.618c0,0.909 0.122,2.404 -0.909,2.768l0,0.061l8.427,0l0.909,-2.647l-0.061,0c-1.01,0.889 -2.404,1.313 -3.738,1.192l-2.566,-0.243l0,-4.789Z" style="fill:#fff;"/><path d="M33.989,60.299l2.223,6.952c0.667,2.081 0.808,1.98 2.668,3.253l4.263,-13.903l-3.112,0l0,0.061c1.577,0.546 0.91,2.182 0.546,3.334l-2.284,7.396l-2.808,-8.75c-0.283,-0.889 -0.425,-1.536 -0.304,-2.041l-2.849,0l0,0.061c1.112,0.566 0.708,1.879 0.324,3.112l-2.365,7.679l-3.011,-9.397c-0.121,-0.384 -0.323,-1.01 -0.242,-1.455l-2.95,0l0,0.061c1.01,0.687 1.313,2 1.677,3.112l2.384,7.456c0.667,2.082 0.849,1.94 2.688,3.274l3.152,-10.205Z" style="fill:#fff;fill-rule:nonzero;"/><path d="M54.188,56.258c-4.244,-0.101 -7.578,3.112 -7.578,6.951c0,4.143 3.375,7.012 7.376,7.012c4.021,0 7.436,-2.991 7.436,-7.113c0,-3.637 -2.99,-6.871 -7.234,-6.85ZM54.047,57.713c3.192,0 5.072,2.849 5.072,5.799c0,3.011 -1.96,5.254 -5.032,5.254c-3.173,0 -5.173,-2.91 -5.173,-5.739c0,-3.051 2,-5.314 5.133,-5.314Z" style="fill:#fff;"/><path d="M62.138,56.601l0,0.061c1.03,0.384 0.889,1.859 0.889,2.789l0,7.618c0,0.909 0.141,2.404 -0.889,2.768l0,0.061l3.859,0l0,-0.061c-1.03,-0.364 -0.909,-1.839 -0.909,-2.768l0,-9.053c0.465,-0.081 0.909,-0.142 1.374,-0.162c1.354,-0.061 2.607,0.788 2.607,2.243c0,1.9 -1.879,2.647 -3.496,2.89l1.859,2.849l2.465,3.051c0.607,0.748 1.273,1.011 2.344,1.011l1.86,0c-1.152,-0.728 -2.425,-1.778 -3.274,-2.829l-2.91,-3.658c1.657,-0.384 3.213,-1.778 3.213,-3.556c0,-1.839 -1.475,-3.254 -4.183,-3.254l-4.809,0Z" style="fill:#fff;fill-rule:nonzero;"/><path d="M77.95,68.261l0,-8.81c0,-0.91 -0.142,-2.405 0.889,-2.789l0,-0.061l-3.86,0l0,0.061c1.031,0.384 0.91,1.859 0.91,2.789l0,7.618c0,0.909 0.121,2.404 -0.91,2.768l0,0.061l8.306,0l1.05,-2.688l-0.06,0c-1.011,0.849 -2.203,1.314 -3.577,1.233l-2.748,-0.182Z" style="fill:#fff;"/><path d="M87.835,63.411l1.495,0c0.627,0 1.475,-0.02 1.799,0.566l0.06,0l0,-2.142l-0.06,0c-0.243,0.121 -0.566,0.121 -0.89,0.121l-2.404,0l0,-3.758c0.646,-0.122 1.354,-0.142 2.061,-0.142c0.93,0 1.758,0.081 2.384,0.808l0.061,0l0,-2.364l-0.061,0c-0.262,0.142 -0.606,0.101 -0.949,0.101l-6.467,0l0,0.061c1.031,0.384 0.91,1.859 0.91,2.789l0,7.618c0,0.909 0.121,2.404 -0.91,2.768l0,0.061l8.427,0l0.909,-2.647l-0.061,0c-1.01,0.889 -2.404,1.313 -3.738,1.192l-2.566,-0.243l0,-4.789Z" style="fill:#fff;"/><path d="M104.497,64.907l1.091,2.849c0.546,1.414 0.708,1.637 -0.282,2.081l0,0.061l4.142,0l0,-0.061c-1.152,-0.586 -1.515,-1.717 -1.98,-2.869l-4.203,-10.367l-3.193,0l0,0.061c0.97,0.303 0.586,1.152 0.303,1.879l-3.375,8.427c-0.444,1.152 -0.788,2.283 -1.96,2.869l0,0.061l3.718,0l0,-0.061c-0.97,-0.364 -0.828,-0.95 -0.404,-2.081l1.051,-2.849l5.092,0ZM103.911,63.411l-3.981,0l2.001,-5.092l1.98,5.092Z" style="fill:#fff;"/><path d="M113.134,59.451l6.931,8.79c0.89,1.152 1.516,1.818 2.951,2.303l0,-11.336c0,-1.132 0,-1.94 1.051,-2.546l0,-0.061l-3.557,0l0,0.061c1.071,0.606 1.051,1.414 1.051,2.546l0,7.659l-7.396,-9.336l-0.283,-0.404c-0.141,-0.162 -0.222,-0.263 -0.303,-0.506l0,-0.02l-2.95,0l0,0.061c1.05,0.606 1.05,1.414 1.05,2.546l0,8.063c0,1.131 0,1.94 -1.071,2.566l0,0.061l3.577,0l0,-0.061c-1.071,-0.626 -1.051,-1.435 -1.051,-2.566l0,-7.82Z" style="fill:#fff;fill-rule:nonzero;"/><path d="M132.574,56.722c-0.97,-0.303 -2,-0.444 -3.011,-0.444c-2.465,0 -5.072,0.97 -5.072,3.516c0,4.284 6.952,3.718 6.952,6.871c0,1.414 -1.738,2.101 -2.89,2.101c-1.576,0 -3.233,-0.646 -4.426,-1.677l0.587,2.526c1.151,0.424 2.384,0.606 3.617,0.606c3.152,0 5.415,-2.021 5.415,-4.183c0,-3.738 -6.951,-3.698 -6.951,-6.466c0,-1.395 1.455,-1.839 2.607,-1.839c1.131,0 2.384,0.465 3.172,1.273l0,-2.284Z" style="fill:#fff;fill-rule:nonzero;"/><g><path d="M145.344,1.507l0,74.506" style="fill:#fff;"/><rect x="144.074" y="1.507" width="2.539" height="74.506" style="fill:#fff;"/></g><g transform="matrix(1,0,0,1,-9.76648,19.7139)"><text x="164.205px" y="13.382px" style="font-family:'Avenir-Medium';font-size:24px;fill:#fff;">FILM &amp; MUSIC</text><text x="164.205px" y="39.782px" style="font-family:'Avenir-Medium';font-size:24px;fill:#fff;">INDUSTR<tspan x="266.013px 280.701px " y="39.782px 39.782px ">Y </tspan>STUDIES</text></g></g></svg>