<?xml version="1.0" encoding="UTF-8" standalone="no"?>
<svg width="100px" height="60px" viewBox="0 0 100 60" version="1.1" xmlns="http://www.w3.org/2000/svg" xmlns:xlink="http://www.w3.org/1999/xlink">
    <defs></defs>
    <g id="Degree-Icons" stroke="none" stroke-width="1" fill="none" fill-rule="evenodd">
        <g id="Artboard-1" transform="translate(-123.000000, -316.000000)" fill="#000000">
            <g id="noun_12943_cc" transform="translate(123.000000, 316.000000)">
                <g id="Group">
                    <path d="M47.252,16.973 L48.78,15.799 L48.78,0.122 L25.61,12.317 L25.61,59.878 L48.78,47.683 L48.78,18.614 L47.252,16.973 L47.252,16.973 Z M29.005,42.902 L27.577,40.924 L33.342,36.761 L34.77,38.739 L29.005,42.902 L29.005,42.902 Z M37.41,36.115 L35.428,34.693 L39.573,28.915 L41.554,30.337 L37.41,36.115 L37.41,36.115 Z M43.805,27.655 L41.713,26.4 L45.372,20.302 L47.463,21.557 L43.805,27.655 L43.805,27.655 Z" id="Shape"></path>
                    <path d="M22.111,43.66 L22.415,41.24 L23.17,41.445 L23.17,12.317 L0,0.122 L0,27.666 L3.377,31.043 L1.652,32.768 L0,31.115 L0,47.682 L23.171,59.877 L23.171,43.947 L22.111,43.66 L22.111,43.66 Z M9.619,38.468 L3.838,34.704 L5.169,32.66 L10.95,36.424 L9.619,38.468 L9.619,38.468 Z M18.778,42.738 L12.272,40.445 L13.082,38.145 L19.589,40.438 L18.778,42.738 L18.778,42.738 Z" id="Shape"></path>
                    <path d="M51.22,14.564 L56.131,15.499 L55.676,17.895 L51.22,17.046 L51.22,47.682 L74.391,59.877 L74.391,12.317 L51.22,0.122 L51.22,14.564 L51.22,14.564 Z M66.426,25.147 L71.828,29.437 L70.312,31.348 L64.909,27.057 L66.426,25.147 L66.426,25.147 Z M59.475,17.628 L64.354,22.506 L62.629,24.23 L57.75,19.352 L59.475,17.628 L59.475,17.628 Z" id="Shape"></path>
                    <path d="M98.472,13.314 L100,12.14 L100,0.122 L76.829,12.317 L76.829,33.275 L83.096,31.671 L83.701,34.033 L76.829,35.793 L76.829,59.878 L100,47.683 L100,14.955 L98.472,13.314 L98.472,13.314 Z M87.409,31.237 L85.428,29.815 L89.573,24.037 L91.554,25.459 L87.409,31.237 L87.409,31.237 Z M93.204,22.595 L91.351,21.011 L95.972,15.606 L97.825,17.191 L93.204,22.595 L93.204,22.595 Z" id="Shape"></path>
                </g>
            </g>
        </g>
    </g>
</svg>