<?xml version="1.0" encoding="UTF-8" standalone="no"?>
<svg width="16px" height="16px" viewBox="0 0 16 16" version="1.1" xmlns="http://www.w3.org/2000/svg" xmlns:xlink="http://www.w3.org/1999/xlink">
    <defs></defs>
    <g stroke="none" stroke-width="1" fill="none" fill-rule="evenodd">
        <g transform="translate(-96.000000, -117.000000)">
            <g transform="translate(44.000000, 66.000000)">
                <g transform="translate(1.000000, 48.000000)">
                    <g transform="translate(51.520815, 3.813708)">
                        <path d="M6,12 C9.3137085,12 12,9.3137085 12,6 C12,2.6862915 9.3137085,3.55271368e-14 6,3.55271368e-14 C2.6862915,3.55271368e-14 3.55271368e-14,2.6862915 3.55271368e-14,6 C3.55271368e-14,9.3137085 2.6862915,12 6,12 Z" stroke="#333333" stroke-width="2"></path>
                        <path d="M11.0355339,8.03553391 L13.0355339,8.03553391 L13.0355339,11.8216261 C13.0355339,12.376757 13.0355339,13.2687266 13.0355339,13.8223952 L13.0355339,15.0405218 C13.0355339,15.5900518 12.5916691,16.0355339 12.0355339,16.0355339 L12.0355339,16.0355339 C11.4832492,16.0355339 11.0355339,15.5824976 11.0355339,15.0385038 L11.0355339,8.03553391 Z" fill="#333333" transform="translate(12.035534, 12.035534) rotate(-45.000000) translate(-12.035534, -12.035534) "></path>
                    </g>
                </g>
            </g>
        </g>
    </g>
</svg>